<svg width="35" height="25" viewBox="0 0 35 25" fill="none" xmlns="http://www.w3.org/2000/svg">
<path d="M25.0425 25C22.7141 24.5062 20.9802 23.4156 19.8408 21.7284C18.7013 20 18.1316 17.963 18.1316 15.6173C18.1316 11.9136 19.5683 8.72428 22.4416 6.04938C25.3645 3.33333 28.758 1.31687 32.6221 0L35 3.20988L34.9257 3.82716C32.9936 4.40329 31.2845 5.63786 29.7983 7.53087C28.3121 9.42387 27.569 11.3992 27.569 13.4568C27.569 14.7737 27.891 15.8642 28.535 16.7284C29.179 17.5514 30.0708 18.0041 31.2102 18.0864L30.9873 19.321L25.0425 25ZM6.91083 25C4.58245 24.5062 2.84855 23.4156 1.70913 21.7284C0.56971 20 0 17.963 0 15.6173C0 11.9136 1.43666 8.72428 4.30998 6.04938C7.23284 3.33333 10.6263 1.31687 14.4904 0L16.8684 3.20988L16.7941 3.82716C14.862 4.40329 13.1529 5.63786 11.6667 7.53087C10.1805 9.42387 9.43737 11.3992 9.43737 13.4568C9.43737 14.7737 9.75938 15.8642 10.4034 16.7284C11.0474 17.5514 11.9391 18.0041 13.0786 18.0864L12.8556 19.321L6.91083 25Z" fill="#EDEDED"/>
</svg>
