<svg width="53" height="43" viewBox="0 0 53 43" fill="none" xmlns="http://www.w3.org/2000/svg">
<path d="M45.94 0.651367H6.89999C3.53279 0.651367 0.799988 2.89272 0.799988 5.65439V37.6737C0.799988 40.4354 3.53279 42.6767 6.89999 42.6767H45.94C49.3072 42.6767 52.04 40.4354 52.04 37.6737V5.65439C52.04 2.89272 49.3072 0.651367 45.94 0.651367ZM41.06 15.6604H38.62C36.0092 15.6604 34.96 16.1607 34.96 17.6616V20.6634H41.06L39.84 25.6665H34.96V40.6755H28.86V25.6665H23.98V20.6634H28.86V17.6616C28.86 13.6592 31.3 10.6574 36.18 10.6574C39.718 10.6574 41.06 11.658 41.06 11.658V15.6604Z" fill="white"/>
</svg>
