<svg width="35" height="25" viewBox="0 0 35 25" fill="none" xmlns="http://www.w3.org/2000/svg">
<path d="M28.0745 0C30.4078 0.493828 32.1454 1.60494 33.2872 3.33333C34.4291 5.02058 35 7.03704 35 9.38272C35 13.0864 33.5355 16.2963 30.6064 19.0123C27.7269 21.6872 24.3511 23.6831 20.4787 25L18.0957 21.7901L18.1702 21.1728C20.1064 20.5967 21.8191 19.3621 23.3085 17.4691C24.7979 15.5761 25.5426 13.6008 25.5426 11.5432C25.5426 10.2263 25.2199 9.15638 24.5745 8.33333C23.9291 7.46914 23.0355 6.99589 21.8936 6.91358L22.117 5.67901L28.0745 0ZM9.97872 0C12.3121 0.493828 14.0496 1.60494 15.1915 3.33333C16.3333 5.02058 16.9043 7.03704 16.9043 9.38272C16.9043 13.0864 15.4397 16.2963 12.5106 19.0123C9.63121 21.6872 6.25532 23.6831 2.38298 25L0 21.7901L0.0744682 21.1728C2.01064 20.5967 3.7234 19.3621 5.21277 17.4691C6.70213 15.5761 7.44681 13.6008 7.44681 11.5432C7.44681 10.2263 7.12411 9.15638 6.47872 8.33333C5.83333 7.46914 4.93972 6.99589 3.79787 6.91358L4.02128 5.67901L9.97872 0Z" fill="#EDEDED"/>
</svg>
