<svg width="42" height="43" viewBox="0 0 42 43" fill="none" xmlns="http://www.w3.org/2000/svg">
<path d="M12.1299 0.851074C5.44101 0.851074 0 6.30041 0 12.9951V30.3389C0 37.0319 5.44605 42.4762 12.1367 42.4762H29.4701C36.159 42.4762 41.6 37.0269 41.6 30.3321V12.9883C41.6 6.29537 36.1539 0.851074 29.4633 0.851074H12.1299ZM32.9333 7.78859C33.8901 7.78859 34.6667 8.5656 34.6667 9.52297C34.6667 10.4804 33.8901 11.2574 32.9333 11.2574C31.9765 11.2574 31.2 10.4804 31.2 9.52297C31.2 8.5656 31.9765 7.78859 32.9333 7.78859ZM20.8 11.2574C26.5356 11.2574 31.2 15.9246 31.2 21.6636C31.2 27.4027 26.5356 32.0699 20.8 32.0699C15.0644 32.0699 10.4 27.4027 10.4 21.6636C10.4 15.9246 15.0644 11.2574 20.8 11.2574ZM20.8 14.7261C18.9612 14.7261 17.1976 15.457 15.8974 16.7581C14.5971 18.0591 13.8667 19.8237 13.8667 21.6636C13.8667 23.5036 14.5971 25.2682 15.8974 26.5692C17.1976 27.8702 18.9612 28.6012 20.8 28.6012C22.6388 28.6012 24.4024 27.8702 25.7026 26.5692C27.0029 25.2682 27.7333 23.5036 27.7333 21.6636C27.7333 19.8237 27.0029 18.0591 25.7026 16.7581C24.4024 15.457 22.6388 14.7261 20.8 14.7261Z" fill="white"/>
</svg>
