<svg width="40" height="48" viewBox="0 0 40 48" fill="none" xmlns="http://www.w3.org/2000/svg">
<path d="M14.1865 26.6405L16.363 20.0942L10.6195 15.8818H17.6326L19.93 9.10785L22.1669 15.8818H29.2405L23.497 20.0942L25.613 26.6405L19.93 22.5988L14.1865 26.6405ZM5.66191 47.8162V30.5113C3.84817 28.7277 2.54832 26.7733 1.76237 24.6481C0.976413 22.5229 0.583435 20.3788 0.583435 18.2157C0.583435 13.0546 2.43748 8.72835 6.14557 5.23701C9.85366 1.74567 14.4485 0 19.93 0C25.4115 0 30.0063 1.74567 33.7144 5.23701C37.4225 8.72835 39.2766 13.0546 39.2766 18.2157C39.2766 20.3788 38.8836 22.5229 38.0976 24.6481C37.3117 26.7733 36.0118 28.7277 34.1981 30.5113V47.8162L19.93 43.3192L5.66191 47.8162ZM19.93 33.0159C24.3233 33.0159 28.0414 31.5834 31.0845 28.7182C34.1275 25.853 35.6491 22.3522 35.6491 18.2157C35.6491 14.0792 34.1275 10.5784 31.0845 7.71321C28.0414 4.84803 24.3233 3.41544 19.93 3.41544C15.5367 3.41544 11.8185 4.84803 8.77549 7.71321C5.73244 10.5784 4.21091 14.0792 4.21091 18.2157C4.21091 22.3522 5.73244 25.853 8.77549 28.7182C11.8185 31.5834 15.5367 33.0159 19.93 33.0159ZM9.28939 43.0346L19.93 39.9038L30.5706 43.0346V33.3006C28.9584 34.4011 27.2253 35.198 25.3712 35.6914C23.5172 36.1847 21.7034 36.4314 19.93 36.4314C18.1566 36.4314 16.3428 36.1847 14.4888 35.6914C12.6347 35.198 10.9016 34.4011 9.28939 33.3006V43.0346Z" fill="#7030FF"/>
</svg>
