<svg width="53" height="39" viewBox="0 0 53 39" fill="none" xmlns="http://www.w3.org/2000/svg">
<path d="M51.3485 7.14131C50.8678 4.54704 48.5774 2.65778 45.9194 2.06796C41.9419 1.24314 34.5807 0.65332 26.6162 0.65332C18.6564 0.65332 11.1774 1.24314 7.19513 2.06796C4.54188 2.65778 2.24679 4.42723 1.76609 7.14131C1.28068 10.0904 0.799988 14.2191 0.799988 19.5275C0.799988 24.8358 1.28068 28.9646 1.88391 31.9137C2.36932 34.5079 4.65969 36.3972 7.31295 36.987C11.5355 37.8118 18.7742 38.4016 26.7387 38.4016C34.7032 38.4016 41.9419 37.8118 46.1645 36.987C48.8177 36.3972 51.1081 34.6277 51.5935 31.9137C52.0742 28.9646 52.6775 24.716 52.8 19.5275C52.5549 14.2191 51.9517 10.0904 51.3485 7.14131ZM20.1032 27.7849V11.27L34.821 19.5275L20.1032 27.7849Z" fill="white"/>
</svg>
